STARTFONT 2.1 
FONT Teletext Block
SIZE 16 96 96
FONTBOUNDINGBOX 8 16 0 -4
STARTPROPERTIES 15
FONTNAME_REGISTRY ""
FOUNDRY ""
FAMILY_NAME "Teletext Block"
WEIGHT_NAME "Normal"
SLANT "R"
SETWIDTH_NAME "Normal"
ADD_STYLE_NAME "Regular"
PIXEL_SIZE 16
CHARSET_REGISTRY "ISO8859"
CHARSET_ENCODING "1"
FONT_ASCENT 12
FONT_DESCENT 4
DEFAULT_CHAR 32
COPYRIGHT "Copyright 2017"
FACE_NAME "Teletext Block"
ENDPROPERTIES
CHARS 96
STARTCHAR 0
ENCODING 32
SWIDTH 8000 0
DWIDTH 8 0
BBX 8 16 0 -4
BITMAP
00
00
00
00
00
00
00
00
00
00
00
00
00
00
00
00
ENDCHAR
STARTCHAR 1
ENCODING 33
SWIDTH 8000 0
DWIDTH 8 0
BBX 8 16 0 -4
BITMAP
F0
F0
F0
F0
F0
00
00
00
00
00
00
00
00
00
00
00
ENDCHAR
STARTCHAR 2
ENCODING 34
SWIDTH 8000 0
DWIDTH 8 0
BBX 8 16 0 -4
BITMAP
0F
0F
0F
0F
0F
00
00
00
00
00
00
00
00
00
00
00
ENDCHAR
STARTCHAR 3
ENCODING 35
SWIDTH 8000 0
DWIDTH 8 0
BBX 8 16 0 -4
BITMAP
FF
FF
FF
FF
FF
00
00
00
00
00
00
00
00
00
00
00
ENDCHAR
STARTCHAR 4
ENCODING 36
SWIDTH 8000 0
DWIDTH 8 0
BBX 8 16 0 -4
BITMAP
00
00
00
00
00
F0
F0
F0
F0
F0
00
00
00
00
00
00
ENDCHAR
STARTCHAR 5
ENCODING 37
SWIDTH 8000 0
DWIDTH 8 0
BBX 8 16 0 -4
BITMAP
F0
F0
F0
F0
F0
F0
F0
F0
F0
F0
00
00
00
00
00
00
ENDCHAR
STARTCHAR 6
ENCODING 38
SWIDTH 8000 0
DWIDTH 8 0
BBX 8 16 0 -4
BITMAP
0F
0F
0F
0F
0F
F0
F0
F0
F0
F0
00
00
00
00
00
00
ENDCHAR
STARTCHAR 7
ENCODING 39
SWIDTH 8000 0
DWIDTH 8 0
BBX 8 16 0 -4
BITMAP
FF
FF
FF
FF
FF
F0
F0
F0
F0
F0
00
00
00
00
00
00
ENDCHAR
STARTCHAR 8
ENCODING 40
SWIDTH 8000 0
DWIDTH 8 0
BBX 8 16 0 -4
BITMAP
00
00
00
00
00
0F
0F
0F
0F
0F
00
00
00
00
00
00
ENDCHAR
STARTCHAR 9
ENCODING 41
SWIDTH 8000 0
DWIDTH 8 0
BBX 8 16 0 -4
BITMAP
F0
F0
F0
F0
F0
0F
0F
0F
0F
0F
00
00
00
00
00
00
ENDCHAR
STARTCHAR 10
ENCODING 42
SWIDTH 8000 0
DWIDTH 8 0
BBX 8 16 0 -4
BITMAP
0F
0F
0F
0F
0F
0F
0F
0F
0F
0F
00
00
00
00
00
00
ENDCHAR
STARTCHAR 11
ENCODING 43
SWIDTH 8000 0
DWIDTH 8 0
BBX 8 16 0 -4
BITMAP
FF
FF
FF
FF
FF
0F
0F
0F
0F
0F
00
00
00
00
00
00
ENDCHAR
STARTCHAR 12
ENCODING 44
SWIDTH 8000 0
DWIDTH 8 0
BBX 8 16 0 -4
BITMAP
00
00
00
00
00
FF
FF
FF
FF
FF
00
00
00
00
00
00
ENDCHAR
STARTCHAR 13
ENCODING 45
SWIDTH 8000 0
DWIDTH 8 0
BBX 8 16 0 -4
BITMAP
F0
F0
F0
F0
F0
FF
FF
FF
FF
FF
00
00
00
00
00
00
ENDCHAR
STARTCHAR 14
ENCODING 46
SWIDTH 8000 0
DWIDTH 8 0
BBX 8 16 0 -4
BITMAP
0F
0F
0F
0F
0F
FF
FF
FF
FF
FF
00
00
00
00
00
00
ENDCHAR
STARTCHAR 15
ENCODING 47
SWIDTH 8000 0
DWIDTH 8 0
BBX 8 16 0 -4
BITMAP
FF
FF
FF
FF
FF
FF
FF
FF
FF
FF
00
00
00
00
00
00
ENDCHAR
STARTCHAR 16
ENCODING 48
SWIDTH 8000 0
DWIDTH 8 0
BBX 8 16 0 -4
BITMAP
00
00
00
00
00
00
00
00
00
00
F0
F0
F0
F0
F0
F0
ENDCHAR
STARTCHAR 17
ENCODING 49
SWIDTH 8000 0
DWIDTH 8 0
BBX 8 16 0 -4
BITMAP
F0
F0
F0
F0
F0
00
00
00
00
00
F0
F0
F0
F0
F0
F0
ENDCHAR
STARTCHAR 18
ENCODING 50
SWIDTH 8000 0
DWIDTH 8 0
BBX 8 16 0 -4
BITMAP
0F
0F
0F
0F
0F
00
00
00
00
00
F0
F0
F0
F0
F0
F0
ENDCHAR
STARTCHAR 19
ENCODING 51
SWIDTH 8000 0
DWIDTH 8 0
BBX 8 16 0 -4
BITMAP
FF
FF
FF
FF
FF
00
00
00
00
00
F0
F0
F0
F0
F0
F0
ENDCHAR
STARTCHAR 20
ENCODING 52
SWIDTH 8000 0
DWIDTH 8 0
BBX 8 16 0 -4
BITMAP
00
00
00
00
00
F0
F0
F0
F0
F0
F0
F0
F0
F0
F0
F0
ENDCHAR
STARTCHAR 21
ENCODING 53
SWIDTH 8000 0
DWIDTH 8 0
BBX 8 16 0 -4
BITMAP
F0
F0
F0
F0
F0
F0
F0
F0
F0
F0
F0
F0
F0
F0
F0
F0
ENDCHAR
STARTCHAR 22
ENCODING 54
SWIDTH 8000 0
DWIDTH 8 0
BBX 8 16 0 -4
BITMAP
0F
0F
0F
0F
0F
F0
F0
F0
F0
F0
F0
F0
F0
F0
F0
F0
ENDCHAR
STARTCHAR 23
ENCODING 55
SWIDTH 8000 0
DWIDTH 8 0
BBX 8 16 0 -4
BITMAP
FF
FF
FF
FF
FF
F0
F0
F0
F0
F0
F0
F0
F0
F0
F0
F0
ENDCHAR
STARTCHAR 24
ENCODING 56
SWIDTH 8000 0
DWIDTH 8 0
BBX 8 16 0 -4
BITMAP
00
00
00
00
00
0F
0F
0F
0F
0F
F0
F0
F0
F0
F0
F0
ENDCHAR
STARTCHAR 25
ENCODING 57
SWIDTH 8000 0
DWIDTH 8 0
BBX 8 16 0 -4
BITMAP
F0
F0
F0
F0
F0
0F
0F
0F
0F
0F
F0
F0
F0
F0
F0
F0
ENDCHAR
STARTCHAR 26
ENCODING 58
SWIDTH 8000 0
DWIDTH 8 0
BBX 8 16 0 -4
BITMAP
0F
0F
0F
0F
0F
0F
0F
0F
0F
0F
F0
F0
F0
F0
F0
F0
ENDCHAR
STARTCHAR 27
ENCODING 59
SWIDTH 8000 0
DWIDTH 8 0
BBX 8 16 0 -4
BITMAP
FF
FF
FF
FF
FF
0F
0F
0F
0F
0F
F0
F0
F0
F0
F0
F0
ENDCHAR
STARTCHAR 28
ENCODING 60
SWIDTH 8000 0
DWIDTH 8 0
BBX 8 16 0 -4
BITMAP
00
00
00
00
00
FF
FF
FF
FF
FF
F0
F0
F0
F0
F0
F0
ENDCHAR
STARTCHAR 29
ENCODING 61
SWIDTH 8000 0
DWIDTH 8 0
BBX 8 16 0 -4
BITMAP
F0
F0
F0
F0
F0
FF
FF
FF
FF
FF
F0
F0
F0
F0
F0
F0
ENDCHAR
STARTCHAR 30
ENCODING 62
SWIDTH 8000 0
DWIDTH 8 0
BBX 8 16 0 -4
BITMAP
0F
0F
0F
0F
0F
FF
FF
FF
FF
FF
F0
F0
F0
F0
F0
F0
ENDCHAR
STARTCHAR 31
ENCODING 63
SWIDTH 8000 0
DWIDTH 8 0
BBX 8 16 0 -4
BITMAP
FF
FF
FF
FF
FF
FF
FF
FF
FF
FF
F0
F0
F0
F0
F0
F0
ENDCHAR
STARTCHAR 32
ENCODING 64
SWIDTH 8000 0
DWIDTH 8 0
BBX 8 16 0 -4
BITMAP
00
00
00
00
00
00
00
00
00
00
0F
0F
0F
0F
0F
0F
ENDCHAR
STARTCHAR 33
ENCODING 65
SWIDTH 8000 0
DWIDTH 8 0
BBX 8 16 0 -4
BITMAP
F0
F0
F0
F0
F0
00
00
00
00
00
0F
0F
0F
0F
0F
0F
ENDCHAR
STARTCHAR 34
ENCODING 66
SWIDTH 8000 0
DWIDTH 8 0
BBX 8 16 0 -4
BITMAP
0F
0F
0F
0F
0F
00
00
00
00
00
0F
0F
0F
0F
0F
0F
ENDCHAR
STARTCHAR 35
ENCODING 67
SWIDTH 8000 0
DWIDTH 8 0
BBX 8 16 0 -4
BITMAP
FF
FF
FF
FF
FF
00
00
00
00
00
0F
0F
0F
0F
0F
0F
ENDCHAR
STARTCHAR 36
ENCODING 68
SWIDTH 8000 0
DWIDTH 8 0
BBX 8 16 0 -4
BITMAP
00
00
00
00
00
F0
F0
F0
F0
F0
0F
0F
0F
0F
0F
0F
ENDCHAR
STARTCHAR 37
ENCODING 69
SWIDTH 8000 0
DWIDTH 8 0
BBX 8 16 0 -4
BITMAP
F0
F0
F0
F0
F0
F0
F0
F0
F0
F0
0F
0F
0F
0F
0F
0F
ENDCHAR
STARTCHAR 38
ENCODING 70
SWIDTH 8000 0
DWIDTH 8 0
BBX 8 16 0 -4
BITMAP
0F
0F
0F
0F
0F
F0
F0
F0
F0
F0
0F
0F
0F
0F
0F
0F
ENDCHAR
STARTCHAR 39
ENCODING 71
SWIDTH 8000 0
DWIDTH 8 0
BBX 8 16 0 -4
BITMAP
FF
FF
FF
FF
FF
F0
F0
F0
F0
F0
0F
0F
0F
0F
0F
0F
ENDCHAR
STARTCHAR 40
ENCODING 72
SWIDTH 8000 0
DWIDTH 8 0
BBX 8 16 0 -4
BITMAP
00
00
00
00
00
0F
0F
0F
0F
0F
0F
0F
0F
0F
0F
0F
ENDCHAR
STARTCHAR 41
ENCODING 73
SWIDTH 8000 0
DWIDTH 8 0
BBX 8 16 0 -4
BITMAP
F0
F0
F0
F0
F0
0F
0F
0F
0F
0F
0F
0F
0F
0F
0F
0F
ENDCHAR
STARTCHAR 42
ENCODING 74
SWIDTH 8000 0
DWIDTH 8 0
BBX 8 16 0 -4
BITMAP
0F
0F
0F
0F
0F
0F
0F
0F
0F
0F
0F
0F
0F
0F
0F
0F
ENDCHAR
STARTCHAR 43
ENCODING 75
SWIDTH 8000 0
DWIDTH 8 0
BBX 8 16 0 -4
BITMAP
FF
FF
FF
FF
FF
0F
0F
0F
0F
0F
0F
0F
0F
0F
0F
0F
ENDCHAR
STARTCHAR 44
ENCODING 76
SWIDTH 8000 0
DWIDTH 8 0
BBX 8 16 0 -4
BITMAP
00
00
00
00
00
FF
FF
FF
FF
FF
0F
0F
0F
0F
0F
0F
ENDCHAR
STARTCHAR 45
ENCODING 77
SWIDTH 8000 0
DWIDTH 8 0
BBX 8 16 0 -4
BITMAP
F0
F0
F0
F0
F0
FF
FF
FF
FF
FF
0F
0F
0F
0F
0F
0F
ENDCHAR
STARTCHAR 46
ENCODING 78
SWIDTH 8000 0
DWIDTH 8 0
BBX 8 16 0 -4
BITMAP
0F
0F
0F
0F
0F
FF
FF
FF
FF
FF
0F
0F
0F
0F
0F
0F
ENDCHAR
STARTCHAR 47
ENCODING 79
SWIDTH 8000 0
DWIDTH 8 0
BBX 8 16 0 -4
BITMAP
FF
FF
FF
FF
FF
FF
FF
FF
FF
FF
0F
0F
0F
0F
0F
0F
ENDCHAR
STARTCHAR 48
ENCODING 80
SWIDTH 8000 0
DWIDTH 8 0
BBX 8 16 0 -4
BITMAP
00
00
00
00
00
00
00
00
00
00
FF
FF
FF
FF
FF
FF
ENDCHAR
STARTCHAR 49
ENCODING 81
SWIDTH 8000 0
DWIDTH 8 0
BBX 8 16 0 -4
BITMAP
F0
F0
F0
F0
F0
00
00
00
00
00
FF
FF
FF
FF
FF
FF
ENDCHAR
STARTCHAR 50
ENCODING 82
SWIDTH 8000 0
DWIDTH 8 0
BBX 8 16 0 -4
BITMAP
0F
0F
0F
0F
0F
00
00
00
00
00
FF
FF
FF
FF
FF
FF
ENDCHAR
STARTCHAR 51
ENCODING 83
SWIDTH 8000 0
DWIDTH 8 0
BBX 8 16 0 -4
BITMAP
FF
FF
FF
FF
FF
00
00
00
00
00
FF
FF
FF
FF
FF
FF
ENDCHAR
STARTCHAR 52
ENCODING 84
SWIDTH 8000 0
DWIDTH 8 0
BBX 8 16 0 -4
BITMAP
00
00
00
00
00
F0
F0
F0
F0
F0
FF
FF
FF
FF
FF
FF
ENDCHAR
STARTCHAR 53
ENCODING 85
SWIDTH 8000 0
DWIDTH 8 0
BBX 8 16 0 -4
BITMAP
F0
F0
F0
F0
F0
F0
F0
F0
F0
F0
FF
FF
FF
FF
FF
FF
ENDCHAR
STARTCHAR 54
ENCODING 86
SWIDTH 8000 0
DWIDTH 8 0
BBX 8 16 0 -4
BITMAP
0F
0F
0F
0F
0F
F0
F0
F0
F0
F0
FF
FF
FF
FF
FF
FF
ENDCHAR
STARTCHAR 55
ENCODING 87
SWIDTH 8000 0
DWIDTH 8 0
BBX 8 16 0 -4
BITMAP
FF
FF
FF
FF
FF
F0
F0
F0
F0
F0
FF
FF
FF
FF
FF
FF
ENDCHAR
STARTCHAR 56
ENCODING 88
SWIDTH 8000 0
DWIDTH 8 0
BBX 8 16 0 -4
BITMAP
00
00
00
00
00
0F
0F
0F
0F
0F
FF
FF
FF
FF
FF
FF
ENDCHAR
STARTCHAR 57
ENCODING 89
SWIDTH 8000 0
DWIDTH 8 0
BBX 8 16 0 -4
BITMAP
F0
F0
F0
F0
F0
0F
0F
0F
0F
0F
FF
FF
FF
FF
FF
FF
ENDCHAR
STARTCHAR 58
ENCODING 90
SWIDTH 8000 0
DWIDTH 8 0
BBX 8 16 0 -4
BITMAP
0F
0F
0F
0F
0F
0F
0F
0F
0F
0F
FF
FF
FF
FF
FF
FF
ENDCHAR
STARTCHAR 59
ENCODING 91
SWIDTH 8000 0
DWIDTH 8 0
BBX 8 16 0 -4
BITMAP
FF
FF
FF
FF
FF
0F
0F
0F
0F
0F
FF
FF
FF
FF
FF
FF
ENDCHAR
STARTCHAR 60
ENCODING 92
SWIDTH 8000 0
DWIDTH 8 0
BBX 8 16 0 -4
BITMAP
00
00
00
00
00
FF
FF
FF
FF
FF
FF
FF
FF
FF
FF
FF
ENDCHAR
STARTCHAR 61
ENCODING 93
SWIDTH 8000 0
DWIDTH 8 0
BBX 8 16 0 -4
BITMAP
F0
F0
F0
F0
F0
FF
FF
FF
FF
FF
FF
FF
FF
FF
FF
FF
ENDCHAR
STARTCHAR 62
ENCODING 94
SWIDTH 8000 0
DWIDTH 8 0
BBX 8 16 0 -4
BITMAP
0F
0F
0F
0F
0F
FF
FF
FF
FF
FF
FF
FF
FF
FF
FF
FF
ENDCHAR
STARTCHAR 63
ENCODING 95
SWIDTH 8000 0
DWIDTH 8 0
BBX 8 16 0 -4
BITMAP
FF
FF
FF
FF
FF
FF
FF
FF
FF
FF
FF
FF
FF
FF
FF
FF
ENDCHAR
STARTCHAR 64
ENCODING 96
SWIDTH 8000 0
DWIDTH 8 0
BBX 8 16 0 -4
BITMAP
00
00
00
00
00
00
00
00
00
00
00
00
00
00
00
00
ENDCHAR
STARTCHAR 65
ENCODING 97
SWIDTH 8000 0
DWIDTH 8 0
BBX 8 16 0 -4
BITMAP
00
00
00
00
00
00
00
00
00
00
00
00
00
00
00
00
ENDCHAR
STARTCHAR 66
ENCODING 98
SWIDTH 8000 0
DWIDTH 8 0
BBX 8 16 0 -4
BITMAP
00
00
00
00
00
00
00
00
00
00
00
00
00
00
00
00
ENDCHAR
STARTCHAR 67
ENCODING 99
SWIDTH 8000 0
DWIDTH 8 0
BBX 8 16 0 -4
BITMAP
00
00
00
00
00
00
00
00
00
00
00
00
00
00
00
00
ENDCHAR
STARTCHAR 68
ENCODING 100
SWIDTH 8000 0
DWIDTH 8 0
BBX 8 16 0 -4
BITMAP
00
00
00
00
00
00
00
00
00
00
00
00
00
00
00
00
ENDCHAR
STARTCHAR 69
ENCODING 101
SWIDTH 8000 0
DWIDTH 8 0
BBX 8 16 0 -4
BITMAP
00
00
00
00
00
00
00
00
00
00
00
00
00
00
00
00
ENDCHAR
STARTCHAR 70
ENCODING 102
SWIDTH 8000 0
DWIDTH 8 0
BBX 8 16 0 -4
BITMAP
00
00
00
00
00
00
00
00
00
00
00
00
00
00
00
00
ENDCHAR
STARTCHAR 71
ENCODING 103
SWIDTH 8000 0
DWIDTH 8 0
BBX 8 16 0 -4
BITMAP
00
00
00
00
00
00
00
00
00
00
00
00
00
00
00
00
ENDCHAR
STARTCHAR 72
ENCODING 104
SWIDTH 8000 0
DWIDTH 8 0
BBX 8 16 0 -4
BITMAP
00
00
00
00
00
00
00
00
00
00
00
00
00
00
00
00
ENDCHAR
STARTCHAR 73
ENCODING 105
SWIDTH 8000 0
DWIDTH 8 0
BBX 8 16 0 -4
BITMAP
00
00
00
00
00
00
00
00
00
00
00
00
00
00
00
00
ENDCHAR
STARTCHAR 74
ENCODING 106
SWIDTH 8000 0
DWIDTH 8 0
BBX 8 16 0 -4
BITMAP
00
00
00
00
00
00
00
00
00
00
00
00
00
00
00
00
ENDCHAR
STARTCHAR 75
ENCODING 107
SWIDTH 8000 0
DWIDTH 8 0
BBX 8 16 0 -4
BITMAP
00
00
00
00
00
00
00
00
00
00
00
00
00
00
00
00
ENDCHAR
STARTCHAR 76
ENCODING 108
SWIDTH 8000 0
DWIDTH 8 0
BBX 8 16 0 -4
BITMAP
00
00
00
00
00
00
00
00
00
00
00
00
00
00
00
00
ENDCHAR
STARTCHAR 77
ENCODING 109
SWIDTH 8000 0
DWIDTH 8 0
BBX 8 16 0 -4
BITMAP
00
00
00
00
00
00
00
00
00
00
00
00
00
00
00
00
ENDCHAR
STARTCHAR 78
ENCODING 110
SWIDTH 8000 0
DWIDTH 8 0
BBX 8 16 0 -4
BITMAP
00
00
00
00
00
00
00
00
00
00
00
00
00
00
00
00
ENDCHAR
STARTCHAR 79
ENCODING 111
SWIDTH 8000 0
DWIDTH 8 0
BBX 8 16 0 -4
BITMAP
00
00
00
00
00
00
00
00
00
00
00
00
00
00
00
00
ENDCHAR
STARTCHAR 80
ENCODING 112
SWIDTH 8000 0
DWIDTH 8 0
BBX 8 16 0 -4
BITMAP
00
00
00
00
00
00
00
00
00
00
00
00
00
00
00
00
ENDCHAR
STARTCHAR 81
ENCODING 113
SWIDTH 8000 0
DWIDTH 8 0
BBX 8 16 0 -4
BITMAP
00
00
00
00
00
00
00
00
00
00
00
00
00
00
00
00
ENDCHAR
STARTCHAR 82
ENCODING 114
SWIDTH 8000 0
DWIDTH 8 0
BBX 8 16 0 -4
BITMAP
00
00
00
00
00
00
00
00
00
00
00
00
00
00
00
00
ENDCHAR
STARTCHAR 83
ENCODING 115
SWIDTH 8000 0
DWIDTH 8 0
BBX 8 16 0 -4
BITMAP
00
00
00
00
00
00
00
00
00
00
00
00
00
00
00
00
ENDCHAR
STARTCHAR 84
ENCODING 116
SWIDTH 8000 0
DWIDTH 8 0
BBX 8 16 0 -4
BITMAP
00
00
00
00
00
00
00
00
00
00
00
00
00
00
00
00
ENDCHAR
STARTCHAR 85
ENCODING 117
SWIDTH 8000 0
DWIDTH 8 0
BBX 8 16 0 -4
BITMAP
00
00
00
00
00
00
00
00
00
00
00
00
00
00
00
00
ENDCHAR
STARTCHAR 86
ENCODING 118
SWIDTH 8000 0
DWIDTH 8 0
BBX 8 16 0 -4
BITMAP
00
00
00
00
00
00
00
00
00
00
00
00
00
00
00
00
ENDCHAR
STARTCHAR 87
ENCODING 119
SWIDTH 8000 0
DWIDTH 8 0
BBX 8 16 0 -4
BITMAP
00
00
00
00
00
00
00
00
00
00
00
00
00
00
00
00
ENDCHAR
STARTCHAR 88
ENCODING 120
SWIDTH 8000 0
DWIDTH 8 0
BBX 8 16 0 -4
BITMAP
00
00
00
00
00
00
00
00
00
00
00
00
00
00
00
00
ENDCHAR
STARTCHAR 89
ENCODING 121
SWIDTH 8000 0
DWIDTH 8 0
BBX 8 16 0 -4
BITMAP
00
00
00
00
00
00
00
00
00
00
00
00
00
00
00
00
ENDCHAR
STARTCHAR 90
ENCODING 122
SWIDTH 8000 0
DWIDTH 8 0
BBX 8 16 0 -4
BITMAP
00
00
00
00
00
00
00
00
00
00
00
00
00
00
00
00
ENDCHAR
STARTCHAR 91
ENCODING 123
SWIDTH 8000 0
DWIDTH 8 0
BBX 8 16 0 -4
BITMAP
00
00
00
00
00
00
00
00
00
00
00
00
00
00
00
00
ENDCHAR
STARTCHAR 92
ENCODING 124
SWIDTH 8000 0
DWIDTH 8 0
BBX 8 16 0 -4
BITMAP
00
00
00
00
00
00
00
00
00
00
00
00
00
00
00
00
ENDCHAR
STARTCHAR 93
ENCODING 125
SWIDTH 8000 0
DWIDTH 8 0
BBX 8 16 0 -4
BITMAP
00
00
00
00
00
00
00
00
00
00
00
00
00
00
00
00
ENDCHAR
STARTCHAR 94
ENCODING 126
SWIDTH 8000 0
DWIDTH 8 0
BBX 8 16 0 -4
BITMAP
00
00
00
00
00
00
00
00
00
00
00
00
00
00
00
00
ENDCHAR
STARTCHAR 95
ENCODING 127
SWIDTH 8000 0
DWIDTH 8 0
BBX 8 16 0 -4
BITMAP
00
00
00
00
00
00
00
00
00
00
00
00
00
00
00
00
ENDCHAR
ENDFONT
